<svg xmlns="http://www.w3.org/2000/svg" xmlns:xlink="http://www.w3.org/1999/xlink" viewBox="0 0 501 502">
  <defs>
    <style>
      .cls-1 {
        fill: #00adff;
      }

      .cls-2, .cls-5 {
        fill: none;
      }

      .cls-2 {
        stroke: #fff;
        stroke-width: 15px;
      }

      .cls-3 {
        fill: #fff;
      }

      .cls-4 {
        stroke: none;
      }

      .cls-6 {
        filter: url(#Path_1);
      }

      .cls-7 {
        filter: url(#Ellipse_4);
      }
    </style>
    <filter id="Ellipse_4" x="0" y="12" width="493" height="490" filterUnits="userSpaceOnUse">
      <feOffset dx="-5" dy="7" input="SourceAlpha"/>
      <feGaussianBlur stdDeviation="3" result="blur"/>
      <feFlood flood-opacity="0.161"/>
      <feComposite operator="in" in2="blur"/>
      <feComposite in="SourceGraphic"/>
    </filter>
    <filter id="Path_1" x="76.184" y="131.424" width="354.207" height="249.2" filterUnits="userSpaceOnUse">
      <feOffset dx="2" dy="7" input="SourceAlpha"/>
      <feGaussianBlur stdDeviation="3" result="blur-2"/>
      <feFlood flood-opacity="0.38"/>
      <feComposite operator="in" in2="blur-2"/>
      <feComposite in="SourceGraphic"/>
    </filter>
  </defs>
  <g id="Group_1" data-name="Group 1" transform="translate(-978 -8)">
    <circle id="Ellipse_3" data-name="Ellipse 3" class="cls-1" cx="250" cy="250" r="250" transform="translate(979 8)"/>
    <g class="cls-7" transform="matrix(1, 0, 0, 1, 978, 8)">
      <g id="Ellipse_4-2" data-name="Ellipse 4" class="cls-2" transform="translate(14 14)">
        <ellipse class="cls-4" cx="237.5" cy="236" rx="237.5" ry="236"/>
        <ellipse class="cls-5" cx="237.5" cy="236" rx="230" ry="228.5"/>
      </g>
    </g>
    <g class="cls-6" transform="matrix(1, 0, 0, 1, 978, 8)">
      <path id="Path_1-2" data-name="Path 1" class="cls-3" d="M140.9-161.84l-32.64,3.808V-4.9L31.008,4.624l4.08-155.312-35.9,3.536,1.9-66.912,146.88-12.512Zm9.52-50.592q38.352-7.344,63.24-9.792t39.3-2.312q14.416.136,20.128,1.36l5.712,1.224,5.576,2.584a81.788,81.788,0,0,1,12.648,7.616,70.825,70.825,0,0,1,13.464,12.784,35.846,35.846,0,0,1,7.888,17.952q1.5,10.2-4.08,22.984t-22.168,28.288q22.848,11.968,32.5,25.7T335.24-76.976a55.882,55.882,0,0,1-4.08,25.568,104.71,104.71,0,0,1-11.7,21.488A122.428,122.428,0,0,1,307.224-15.1L301.648-9.52q-.272.272-3.672,2.312t-13.328,4.9q-9.928,2.856-26.52,4.76T215.152,4.216Q188.768,4.08,152.32,0Zm97.92,60.928.136-3.128a9.406,9.406,0,0,0-1.9-5.984q-2.04-2.856-7.48-3.808t-16.32,3.4l-1.088,28.56q8.432,1.36,13.736-1.5a23.705,23.705,0,0,0,8.16-6.8,23.786,23.786,0,0,0,3.808-7.344Zm14.416,76.7q0-.272-.408-2.992a19.714,19.714,0,0,0-2.448-6.392,14.209,14.209,0,0,0-6.664-5.848q-4.624-2.176-12.92-1.36T218.96-84.32L222.5-55.76q14.96,1.36,23.256-1.36t11.968-6.664q3.672-3.944,4.352-7.48Z" transform="translate(84 360)"/>
    </g>
  </g>
</svg>
