<svg id="Laag_1" data-name="Laag 1" xmlns="http://www.w3.org/2000/svg" viewBox="0 0 500 500"><defs><style>.cls-1{fill:#1976d2;}.cls-2,.cls-3{fill:none;}.cls-3{stroke:#fff;stroke-width:15px;}.cls-4{fill:#fff;}</style></defs><title>Tekengebied 1</title><g id="typicalbot_square" data-name="typicalbot square"><rect id="Rectangle_1" data-name="Rectangle 1" class="cls-1" width="500" height="500"/><circle id="Ellipse_3" data-name="Ellipse 3" class="cls-1" cx="250" cy="250" r="250"/><g id="Ellipse_4-2" data-name="Ellipse 4-2"><ellipse class="cls-2" cx="249.5" cy="250" rx="237.5" ry="236"/><ellipse class="cls-3" cx="249.5" cy="250" rx="230" ry="228.5"/></g><path id="Path_1-2" data-name="Path 1-2" class="cls-4" d="M222.71,198.74l-32.64,3.81V355.68l-77.25,9.52,4.08-155.31L81,213.43l1.9-66.91L229.78,134Zm9.52-50.59q38.36-7.35,63.24-9.79t39.3-2.32q14.42.14,20.13,1.36l5.71,1.23,5.58,2.58a81.12,81.12,0,0,1,12.64,7.62,70.94,70.94,0,0,1,13.47,12.78,35.93,35.93,0,0,1,7.89,17.95q1.5,10.2-4.08,23t-22.17,28.29q22.85,12,32.5,25.7t10.61,27.06A55.91,55.91,0,0,1,413,309.17a104.55,104.55,0,0,1-11.7,21.49A122.25,122.25,0,0,1,389,345.48l-5.57,5.58c-.18.18-1.41.95-3.67,2.31s-6.71,3-13.33,4.9S351,361.76,339.94,363s-25.39,1.86-43,1.77-38.53-1.5-62.83-4.22Zm97.92,60.93.14-3.13a9.41,9.41,0,0,0-1.9-6c-1.36-1.91-3.86-3.18-7.48-3.81s-9.07.5-16.32,3.4l-1.09,28.56q8.43,1.37,13.73-1.5a23.94,23.94,0,0,0,12-14.14Zm14.42,76.7c0-.18-.14-1.18-.41-3a19.79,19.79,0,0,0-2.45-6.39,14.25,14.25,0,0,0-6.66-5.85q-4.64-2.18-12.92-1.36t-21.36,7.07l3.54,28.56q15,1.37,23.26-1.36t12-6.66c2.45-2.63,3.9-5.13,4.36-7.48Z"/></g></svg>